<svg width="687" height="270" viewBox="0 0 687 270" fill="none" xmlns="http://www.w3.org/2000/svg">
<path d="M326.254 110.873C326.867 112.215 327.275 113.704 327.48 115.338C327.684 116.943 327.786 118.825 327.786 120.985V150.228H320.869V142.873C317.105 148.652 311.268 151.541 303.359 151.541C299.944 151.541 297.026 150.913 294.604 149.658C292.181 148.374 290.357 146.667 289.132 144.537C287.906 142.406 287.293 140.042 287.293 137.445C287.293 130.47 291.16 125.844 298.894 123.568C301.17 122.955 303.782 122.415 306.73 121.948C309.677 121.481 313.209 120.97 317.323 120.416L320.125 120.022C320.008 116.199 319.045 113.397 317.236 111.617C315.427 109.807 312.508 108.903 308.481 108.903C305.504 108.903 302.95 109.589 300.82 110.96C298.719 112.303 297.259 114.375 296.442 117.176L289.044 114.944C290.182 110.712 292.4 107.444 295.698 105.138C299.025 102.803 303.315 101.636 308.568 101.636C312.917 101.636 316.608 102.424 319.644 104C322.708 105.547 324.911 107.838 326.254 110.873ZM304.541 145.018C307.255 145.018 309.648 144.537 311.72 143.574C313.792 142.581 315.47 141.268 316.754 139.634C318.038 137.97 318.87 136.132 319.25 134.118C319.541 133.126 319.731 132.017 319.819 130.791C319.935 129.565 320.008 128.194 320.038 126.676L317.893 126.939C313.778 127.493 310.611 127.945 308.393 128.296C306.204 128.646 304.205 129.084 302.396 129.609C300.149 130.309 298.354 131.272 297.011 132.498C295.698 133.724 295.041 135.358 295.041 137.401C295.041 138.773 295.377 140.042 296.048 141.21C296.719 142.348 297.77 143.267 299.2 143.968C300.63 144.668 302.41 145.018 304.541 145.018Z" fill="url(#paint0_linear)"/>
<path d="M348.405 105.838C349.718 104.788 351.265 103.985 353.045 103.431C354.825 102.876 356.62 102.599 358.429 102.599C359.568 102.599 360.691 102.716 361.8 102.949V110.26C360.574 109.968 359.392 109.822 358.254 109.822C355.423 109.822 353.001 110.566 350.987 112.055C348.857 113.572 347.369 115.571 346.522 118.052C345.676 120.503 345.253 123.32 345.253 126.501V150.228H337.417V102.949H344.377V110.435C345.486 108.509 346.829 106.977 348.405 105.838Z" fill="url(#paint1_linear)"/>
<path d="M403.122 110.873C403.735 112.215 404.144 113.704 404.348 115.338C404.552 116.943 404.654 118.825 404.654 120.985V150.228H397.738V142.873C393.973 148.652 388.136 151.541 380.227 151.541C376.813 151.541 373.894 150.913 371.472 149.658C369.05 148.374 367.226 146.667 366 144.537C364.774 142.406 364.161 140.042 364.161 137.445C364.161 130.47 368.028 125.844 375.762 123.568C378.038 122.955 380.65 122.415 383.598 121.948C386.546 121.481 390.077 120.97 394.192 120.416L396.994 120.022C396.877 116.199 395.914 113.397 394.104 111.617C392.295 109.807 389.376 108.903 385.349 108.903C382.372 108.903 379.819 109.589 377.688 110.96C375.587 112.303 374.128 114.375 373.311 117.176L365.912 114.944C367.051 110.712 369.269 107.444 372.566 105.138C375.893 102.803 380.183 101.636 385.437 101.636C389.785 101.636 393.477 102.424 396.512 104C399.576 105.547 401.78 107.838 403.122 110.873ZM381.409 145.018C384.123 145.018 386.516 144.537 388.588 143.574C390.661 142.581 392.339 141.268 393.623 139.634C394.907 137.97 395.739 136.132 396.118 134.118C396.41 133.126 396.6 132.017 396.687 130.791C396.804 129.565 396.877 128.194 396.906 126.676L394.761 126.939C390.646 127.493 387.479 127.945 385.261 128.296C383.073 128.646 381.074 129.084 379.264 129.609C377.017 130.309 375.222 131.272 373.88 132.498C372.566 133.724 371.91 135.358 371.91 137.401C371.91 138.773 372.245 140.042 372.917 141.21C373.588 142.348 374.638 143.267 376.068 143.968C377.498 144.668 379.279 145.018 381.409 145.018Z" fill="url(#paint2_linear)"/>
<path d="M454.559 102.949V150.534C454.559 153.365 454.37 155.787 453.99 157.801C453.085 162.733 450.867 166.425 447.336 168.876C443.805 171.328 439.165 172.553 433.415 172.553C429.534 172.553 425.915 171.663 422.559 169.883C419.232 168.132 416.62 165.564 414.723 162.178L421.858 158.414C422.967 160.632 424.558 162.281 426.63 163.36C428.731 164.469 431.008 165.024 433.459 165.024C442.389 165.024 446.811 160.165 446.723 150.446V145.894C445.001 147.703 442.973 149.104 440.638 150.096C438.304 151.059 435.706 151.541 432.846 151.541C428.527 151.541 424.762 150.461 421.552 148.301C418.371 146.113 415.919 143.136 414.198 139.371C412.505 135.577 411.659 131.302 411.659 126.545C411.659 121.817 412.505 117.57 414.198 113.806C415.919 110.012 418.371 107.035 421.552 104.875C424.762 102.716 428.512 101.636 432.802 101.636C435.954 101.636 438.771 102.205 441.251 103.343C443.732 104.481 445.862 106.116 447.643 108.246V102.949H454.559ZM433.809 144.405C438.391 144.405 441.835 142.786 444.141 139.546C446.475 136.307 447.643 131.973 447.643 126.545C447.643 121.116 446.49 116.797 444.184 113.587C441.879 110.377 438.493 108.771 434.028 108.771C430.935 108.771 428.323 109.545 426.192 111.092C424.091 112.638 422.515 114.754 421.464 117.439C420.443 120.095 419.932 123.13 419.932 126.545C419.932 129.988 420.443 133.053 421.464 135.738C422.515 138.423 424.076 140.538 426.148 142.085C428.25 143.632 430.803 144.405 433.809 144.405Z" fill="url(#paint3_linear)"/>
<path d="M485.168 151.541C480.528 151.541 476.486 150.49 473.042 148.389C469.628 146.259 467.001 143.311 465.163 139.546C463.324 135.752 462.405 131.418 462.405 126.545C462.405 121.642 463.339 117.308 465.206 113.543C467.074 109.778 469.73 106.86 473.174 104.788C476.617 102.687 480.616 101.636 485.168 101.636C489.809 101.636 493.851 102.687 497.294 104.788C500.738 106.889 503.379 109.822 505.218 113.587C507.057 117.352 507.976 121.671 507.976 126.545C507.976 131.477 507.042 135.84 505.174 139.634C503.336 143.398 500.694 146.331 497.251 148.433C493.807 150.505 489.78 151.541 485.168 151.541ZM485.168 144.143C489.925 144.143 493.53 142.567 495.981 139.415C498.462 136.234 499.702 131.944 499.702 126.545C499.702 121.087 498.462 116.812 495.981 113.718C493.501 110.595 489.896 109.034 485.168 109.034C480.382 109.034 476.763 110.61 474.312 113.762C471.89 116.914 470.679 121.175 470.679 126.545C470.679 132.002 471.919 136.307 474.399 139.459C476.909 142.581 480.499 144.143 485.168 144.143Z" fill="url(#paint4_linear)"/>
<path d="M538.583 101.723C543.311 101.723 547.076 102.891 549.877 105.226C552.679 107.56 554.634 110.42 555.743 113.806C556.852 117.162 557.407 120.591 557.407 124.093V150.228H549.527V126.545C549.527 121.467 548.535 117.293 546.55 114.025C544.595 110.756 541.312 109.122 536.701 109.122C532.673 109.122 529.492 110.493 527.157 113.237C524.852 115.951 523.699 119.978 523.699 125.319V150.228H515.819V102.949H522.824V109.034C524.604 106.67 526.822 104.861 529.478 103.606C532.162 102.351 535.198 101.723 538.583 101.723Z" fill="url(#paint5_linear)"/>
<path d="M593.697 151.541C587.51 151.541 582.14 150.184 577.587 147.47C573.063 144.726 569.59 140.874 567.168 135.913C564.746 130.951 563.535 125.217 563.535 118.709C563.535 112.201 564.746 106.466 567.168 101.505C569.59 96.5433 573.063 92.7056 577.587 89.9914C582.14 87.2481 587.51 85.8765 593.697 85.8765C598.454 85.8765 602.729 86.6936 606.523 88.3279C610.346 89.9331 613.556 92.2532 616.154 95.2884C618.78 98.2943 620.75 101.869 622.064 106.014L611.426 108.947C610.171 104.744 608.055 101.505 605.078 99.2282C602.102 96.9519 598.308 95.8137 593.697 95.8137C589.552 95.8137 586.05 96.7622 583.19 98.6591C580.359 100.527 578.229 103.183 576.799 106.626C575.369 110.041 574.639 114.068 574.61 118.709C574.61 123.349 575.325 127.391 576.755 130.835C578.185 134.249 580.33 136.905 583.19 138.802C586.05 140.67 589.552 141.604 593.697 141.604C598.308 141.604 602.102 140.465 605.078 138.189C608.055 135.913 610.171 132.673 611.426 128.471L622.064 131.404C620.75 135.548 618.78 139.138 616.154 142.173C613.556 145.179 610.346 147.499 606.523 149.133C602.729 150.738 598.454 151.541 593.697 151.541Z" fill="url(#paint6_linear)"/>
<path d="M630.8 87.1898H641.35V140.334H669.192V150.228H630.8V87.1898Z" fill="url(#paint7_linear)"/>
<path d="M675.732 87.1898H686.282V150.228H675.732V87.1898Z" fill="url(#paint8_linear)"/>
<path fill-rule="evenodd" clip-rule="evenodd" d="M0 134.797L175.105 33.699L233.473 67.3983L58.3683 168.496L0 134.797Z" fill="url(#paint9_linear)"/>
<path fill-rule="evenodd" clip-rule="evenodd" d="M0 202.196L58.3683 235.895L233.473 134.797L175.105 101.098L0 202.196Z" fill="url(#paint10_linear)"/>
<path fill-rule="evenodd" clip-rule="evenodd" d="M0 67.3986L58.3683 101.098L175.105 33.6993L116.737 0L0 67.3986Z" fill="url(#paint11_linear)"/>
<path fill-rule="evenodd" clip-rule="evenodd" d="M58.3684 235.895L116.737 269.594L233.473 202.195L175.105 168.496L58.3684 235.895Z" fill="url(#paint12_linear)"/>
<path fill-rule="evenodd" clip-rule="evenodd" d="M0 67.3982L58.3683 101.098L0 134.797V67.3982Z" fill="url(#paint13_linear)"/>
<path fill-rule="evenodd" clip-rule="evenodd" d="M0 134.797L58.3683 168.496L0 202.196V134.797Z" fill="url(#paint14_linear)"/>
<path fill-rule="evenodd" clip-rule="evenodd" d="M175.105 168.496L233.473 202.196V134.797L175.105 168.496Z" fill="url(#paint15_linear)"/>
<path fill-rule="evenodd" clip-rule="evenodd" d="M175.105 101.098L233.473 134.797V67.3982L175.105 101.098Z" fill="url(#paint16_linear)"/>
<defs>
<linearGradient id="paint0_linear" x1="-62.6498" y1="65.3586" x2="45.1652" y2="-169.369" gradientUnits="userSpaceOnUse">
<stop stop-color="#FFBF79"/>
<stop offset="1" stop-color="#FFB196"/>
</linearGradient>
<linearGradient id="paint1_linear" x1="-62.6498" y1="65.3586" x2="45.1652" y2="-169.369" gradientUnits="userSpaceOnUse">
<stop stop-color="#FFBF79"/>
<stop offset="1" stop-color="#FFB196"/>
</linearGradient>
<linearGradient id="paint2_linear" x1="-62.6498" y1="65.3586" x2="45.1652" y2="-169.369" gradientUnits="userSpaceOnUse">
<stop stop-color="#FFBF79"/>
<stop offset="1" stop-color="#FFB196"/>
</linearGradient>
<linearGradient id="paint3_linear" x1="-62.6498" y1="65.3586" x2="45.1652" y2="-169.369" gradientUnits="userSpaceOnUse">
<stop stop-color="#FFBF79"/>
<stop offset="1" stop-color="#FFB196"/>
</linearGradient>
<linearGradient id="paint4_linear" x1="-62.6498" y1="65.3586" x2="45.1652" y2="-169.369" gradientUnits="userSpaceOnUse">
<stop stop-color="#FFBF79"/>
<stop offset="1" stop-color="#FFB196"/>
</linearGradient>
<linearGradient id="paint5_linear" x1="-62.6498" y1="65.3586" x2="45.1652" y2="-169.369" gradientUnits="userSpaceOnUse">
<stop stop-color="#FFBF79"/>
<stop offset="1" stop-color="#FFB196"/>
</linearGradient>
<linearGradient id="paint6_linear" x1="-62.6498" y1="65.3586" x2="45.1652" y2="-169.369" gradientUnits="userSpaceOnUse">
<stop stop-color="#FFBF79"/>
<stop offset="1" stop-color="#FFB196"/>
</linearGradient>
<linearGradient id="paint7_linear" x1="-62.6498" y1="65.3586" x2="45.1652" y2="-169.369" gradientUnits="userSpaceOnUse">
<stop stop-color="#FFBF79"/>
<stop offset="1" stop-color="#FFB196"/>
</linearGradient>
<linearGradient id="paint8_linear" x1="-62.6498" y1="65.3586" x2="45.1652" y2="-169.369" gradientUnits="userSpaceOnUse">
<stop stop-color="#FFBF79"/>
<stop offset="1" stop-color="#FFB196"/>
</linearGradient>
<linearGradient id="paint9_linear" x1="73.2959" y1="153.75" x2="221.733" y2="27.4529" gradientUnits="userSpaceOnUse">
<stop stop-color="#FECD9C"/>
<stop offset="0.0001" stop-color="#FFCF9F"/>
</linearGradient>
<linearGradient id="paint10_linear" x1="389.122" y1="-22.4016" x2="174.301" y2="433.788" gradientUnits="userSpaceOnUse">
<stop offset="0.0001" stop-color="#FFD54D"/>
<stop offset="1" stop-color="#FFB196"/>
</linearGradient>
<linearGradient id="paint11_linear" x1="43.4408" y1="93.2015" x2="170.409" y2="-8.27216" gradientUnits="userSpaceOnUse">
<stop stop-color="#FFCEB4"/>
<stop offset="1" stop-color="#FFDDCA"/>
</linearGradient>
<linearGradient id="paint12_linear" x1="617.899" y1="-120.481" x2="423.79" y2="389.774" gradientUnits="userSpaceOnUse">
<stop offset="0.0001" stop-color="#FED95F"/>
<stop offset="1" stop-color="#FF9E7B"/>
</linearGradient>
<linearGradient id="paint13_linear" x1="97.2805" y1="5.64856" x2="29.1841" y2="134.797" gradientUnits="userSpaceOnUse">
<stop stop-color="#570000"/>
<stop offset="0.0001" stop-color="#FED95F"/>
<stop offset="1" stop-color="#FFB398"/>
</linearGradient>
<linearGradient id="paint14_linear" x1="97.2805" y1="73.0472" x2="29.1841" y2="202.196" gradientUnits="userSpaceOnUse">
<stop stop-color="#570000"/>
<stop offset="0.0001" stop-color="#FED95F"/>
<stop offset="1" stop-color="#FFB398"/>
</linearGradient>
<linearGradient id="paint15_linear" x1="272.386" y1="73.0472" x2="204.289" y2="202.196" gradientUnits="userSpaceOnUse">
<stop stop-color="#570000"/>
<stop offset="0.0001" stop-color="#FED95F"/>
<stop offset="1" stop-color="#FFB398"/>
</linearGradient>
<linearGradient id="paint16_linear" x1="272.386" y1="5.64856" x2="204.289" y2="134.797" gradientUnits="userSpaceOnUse">
<stop stop-color="#570000"/>
<stop offset="0.0001" stop-color="#FED95F"/>
<stop offset="1" stop-color="#FFB398"/>
</linearGradient>
</defs>
</svg>
